<svg id="visual" viewBox="0 0 900 600" xmlns="http://www.w3.org/2000/svg" xmlns:xlink="http://www.w3.org/1999/xlink" version="1.1"><rect x="0" y="0" width="900" height="600" fill="#111111"></rect><defs><linearGradient id="grad1_0" x1="33.3%" y1="100%" x2="100%" y2="0%"><stop offset="20%" stop-color="#009473" stop-opacity="1"></stop><stop offset="80%" stop-color="#009473" stop-opacity="1"></stop></linearGradient></defs><defs><linearGradient id="grad1_1" x1="33.3%" y1="100%" x2="100%" y2="0%"><stop offset="20%" stop-color="#009473" stop-opacity="1"></stop><stop offset="80%" stop-color="#17775e" stop-opacity="1"></stop></linearGradient></defs><defs><linearGradient id="grad1_2" x1="33.3%" y1="100%" x2="100%" y2="0%"><stop offset="20%" stop-color="#1d5c49" stop-opacity="1"></stop><stop offset="80%" stop-color="#17775e" stop-opacity="1"></stop></linearGradient></defs><defs><linearGradient id="grad1_3" x1="33.3%" y1="100%" x2="100%" y2="0%"><stop offset="20%" stop-color="#1d5c49" stop-opacity="1"></stop><stop offset="80%" stop-color="#1d4236" stop-opacity="1"></stop></linearGradient></defs><defs><linearGradient id="grad1_4" x1="33.3%" y1="100%" x2="100%" y2="0%"><stop offset="20%" stop-color="#192923" stop-opacity="1"></stop><stop offset="80%" stop-color="#1d4236" stop-opacity="1"></stop></linearGradient></defs><defs><linearGradient id="grad1_5" x1="33.3%" y1="100%" x2="100%" y2="0%"><stop offset="20%" stop-color="#192923" stop-opacity="1"></stop><stop offset="80%" stop-color="#111111" stop-opacity="1"></stop></linearGradient></defs><defs><linearGradient id="grad2_0" x1="0%" y1="100%" x2="66.7%" y2="0%"><stop offset="20%" stop-color="#009473" stop-opacity="1"></stop><stop offset="80%" stop-color="#009473" stop-opacity="1"></stop></linearGradient></defs><defs><linearGradient id="grad2_1" x1="0%" y1="100%" x2="66.7%" y2="0%"><stop offset="20%" stop-color="#17775e" stop-opacity="1"></stop><stop offset="80%" stop-color="#009473" stop-opacity="1"></stop></linearGradient></defs><defs><linearGradient id="grad2_2" x1="0%" y1="100%" x2="66.7%" y2="0%"><stop offset="20%" stop-color="#17775e" stop-opacity="1"></stop><stop offset="80%" stop-color="#1d5c49" stop-opacity="1"></stop></linearGradient></defs><defs><linearGradient id="grad2_3" x1="0%" y1="100%" x2="66.7%" y2="0%"><stop offset="20%" stop-color="#1d4236" stop-opacity="1"></stop><stop offset="80%" stop-color="#1d5c49" stop-opacity="1"></stop></linearGradient></defs><defs><linearGradient id="grad2_4" x1="0%" y1="100%" x2="66.7%" y2="0%"><stop offset="20%" stop-color="#1d4236" stop-opacity="1"></stop><stop offset="80%" stop-color="#192923" stop-opacity="1"></stop></linearGradient></defs><defs><linearGradient id="grad2_5" x1="0%" y1="100%" x2="66.7%" y2="0%"><stop offset="20%" stop-color="#111111" stop-opacity="1"></stop><stop offset="80%" stop-color="#192923" stop-opacity="1"></stop></linearGradient></defs><g transform="translate(900, 600)"><path d="M-351.5 0C-342.9 -43.5 -334.3 -87.1 -319.7 -132.4C-305 -177.8 -284.3 -225 -248.6 -248.6C-212.9 -272.2 -162.2 -272.2 -118.2 -285.5C-74.3 -298.7 -37.2 -325.1 0 -351.5L0 0Z" fill="#161d1a"></path><path d="M-293 0C-285.8 -36.3 -278.6 -72.5 -266.4 -110.3C-254.2 -148.1 -236.9 -187.5 -207.1 -207.1C-177.4 -226.8 -135.1 -226.9 -98.5 -237.9C-61.9 -248.9 -31 -270.9 0 -293L0 0Z" fill="#1b352c"></path><path d="M-234.4 0C-228.6 -29 -222.9 -58 -213.1 -88.3C-203.3 -118.5 -189.5 -150 -165.7 -165.7C-141.9 -181.5 -108.1 -181.5 -78.8 -190.3C-49.5 -199.1 -24.8 -216.8 0 -234.4L0 0Z" fill="#1d4e3f"></path><path d="M-175.8 0C-171.5 -21.8 -167.2 -43.5 -159.8 -66.2C-152.5 -88.9 -142.1 -112.5 -124.3 -124.3C-106.4 -136.1 -81.1 -136.1 -59.1 -142.7C-37.2 -149.4 -18.6 -162.6 0 -175.8L0 0Z" fill="#1b6953"></path><path d="M-117.2 0C-114.3 -14.5 -111.4 -29 -106.6 -44.1C-101.7 -59.3 -94.8 -75 -82.9 -82.9C-71 -90.7 -54.1 -90.7 -39.4 -95.2C-24.8 -99.6 -12.4 -108.4 0 -117.2L0 0Z" fill="#0f8668"></path><path d="M-58.6 0C-57.2 -7.3 -55.7 -14.5 -53.3 -22.1C-50.8 -29.6 -47.4 -37.5 -41.4 -41.4C-35.5 -45.4 -27 -45.4 -19.7 -47.6C-12.4 -49.8 -6.2 -54.2 0 -58.6L0 0Z" fill="#009473"></path></g><g transform="translate(0, 0)"><path d="M351.5 0C340.9 43.6 330.3 87.2 315 130.5C299.8 173.8 280 216.9 248.6 248.6C217.2 280.3 174.2 300.7 130.9 316C87.5 331.2 43.8 341.4 0 351.5L0 0Z" fill="#161d1a"></path><path d="M293 0C284.1 36.3 275.2 72.6 262.5 108.7C249.8 144.8 233.3 180.7 207.1 207.1C181 233.6 145.2 250.6 109.1 263.3C72.9 276 36.5 284.5 0 293L0 0Z" fill="#1b352c"></path><path d="M234.4 0C227.3 29.1 220.2 58.1 210 87C199.9 115.9 186.6 144.6 165.7 165.7C144.8 186.9 116.2 200.5 87.3 210.6C58.3 220.8 29.2 227.6 0 234.4L0 0Z" fill="#1d4e3f"></path><path d="M175.8 0C170.5 21.8 165.1 43.6 157.5 65.2C149.9 86.9 140 108.4 124.3 124.3C108.6 140.1 87.1 150.3 65.4 158C43.8 165.6 21.9 170.7 0 175.8L0 0Z" fill="#1b6953"></path><path d="M117.2 0C113.6 14.5 110.1 29.1 105 43.5C99.9 57.9 93.3 72.3 82.9 82.9C72.4 93.4 58.1 100.2 43.6 105.3C29.2 110.4 14.6 113.8 0 117.2L0 0Z" fill="#0f8668"></path><path d="M58.6 0C56.8 7.3 55 14.5 52.5 21.7C50 29 46.7 36.1 41.4 41.4C36.2 46.7 29 50.1 21.8 52.7C14.6 55.2 7.3 56.9 0 58.6L0 0Z" fill="#009473"></path></g></svg>