<svg id="visual" viewBox="0 0 900 600" width="900" height="600" xmlns="http://www.w3.org/2000/svg" xmlns:xlink="http://www.w3.org/1999/xlink" version="1.1"><path d="M0 43L18.8 44C37.7 45 75.3 47 112.8 44C150.3 41 187.7 33 225.2 31C262.7 29 300.3 33 337.8 36C375.3 39 412.7 41 450.2 41C487.7 41 525.3 39 562.8 39C600.3 39 637.7 41 675.2 39C712.7 37 750.3 31 787.8 30C825.3 29 862.7 33 881.3 35L900 37L900 0L881.3 0C862.7 0 825.3 0 787.8 0C750.3 0 712.7 0 675.2 0C637.7 0 600.3 0 562.8 0C525.3 0 487.7 0 450.2 0C412.7 0 375.3 0 337.8 0C300.3 0 262.7 0 225.2 0C187.7 0 150.3 0 112.8 0C75.3 0 37.7 0 18.8 0L0 0Z" fill="#009473"></path><path d="M0 115L18.8 110C37.7 105 75.3 95 112.8 86C150.3 77 187.7 69 225.2 74C262.7 79 300.3 97 337.8 101C375.3 105 412.7 95 450.2 92C487.7 89 525.3 93 562.8 96C600.3 99 637.7 101 675.2 99C712.7 97 750.3 91 787.8 87C825.3 83 862.7 81 881.3 80L900 79L900 35L881.3 33C862.7 31 825.3 27 787.8 28C750.3 29 712.7 35 675.2 37C637.7 39 600.3 37 562.8 37C525.3 37 487.7 39 450.2 39C412.7 39 375.3 37 337.8 34C300.3 31 262.7 27 225.2 29C187.7 31 150.3 39 112.8 42C75.3 45 37.7 43 18.8 42L0 41Z" fill="#4aa160"></path><path d="M0 175L18.8 166C37.7 157 75.3 139 112.8 134C150.3 129 187.7 137 225.2 147C262.7 157 300.3 169 337.8 173C375.3 177 412.7 173 450.2 164C487.7 155 525.3 141 562.8 142C600.3 143 637.7 159 675.2 166C712.7 173 750.3 171 787.8 162C825.3 153 862.7 137 881.3 129L900 121L900 77L881.3 78C862.7 79 825.3 81 787.8 85C750.3 89 712.7 95 675.2 97C637.7 99 600.3 97 562.8 94C525.3 91 487.7 87 450.2 90C412.7 93 375.3 103 337.8 99C300.3 95 262.7 77 225.2 72C187.7 67 150.3 75 112.8 84C75.3 93 37.7 103 18.8 108L0 113Z" fill="#7caa4a"></path><path d="M0 205L18.8 196C37.7 187 75.3 169 112.8 162C150.3 155 187.7 159 225.2 167C262.7 175 300.3 187 337.8 191C375.3 195 412.7 191 450.2 184C487.7 177 525.3 167 562.8 167C600.3 167 637.7 177 675.2 182C712.7 187 750.3 187 787.8 178C825.3 169 862.7 151 881.3 142L900 133L900 119L881.3 127C862.7 135 825.3 151 787.8 160C750.3 169 712.7 171 675.2 164C637.7 157 600.3 141 562.8 140C525.3 139 487.7 153 450.2 162C412.7 171 375.3 175 337.8 171C300.3 167 262.7 155 225.2 145C187.7 135 150.3 127 112.8 132C75.3 137 37.7 155 18.8 164L0 173Z" fill="#afb038"></path><path d="M0 223L18.8 215C37.7 207 75.3 191 112.8 183C150.3 175 187.7 175 225.2 182C262.7 189 300.3 203 337.8 208C375.3 213 412.7 209 450.2 202C487.7 195 525.3 185 562.8 187C600.3 189 637.7 203 675.2 210C712.7 217 750.3 217 787.8 205C825.3 193 862.7 169 881.3 157L900 145L900 131L881.3 140C862.7 149 825.3 167 787.8 176C750.3 185 712.7 185 675.2 180C637.7 175 600.3 165 562.8 165C525.3 165 487.7 175 450.2 182C412.7 189 375.3 193 337.8 189C300.3 185 262.7 173 225.2 165C187.7 157 150.3 153 112.8 160C75.3 167 37.7 185 18.8 194L0 203Z" fill="#e6b136"></path><path d="M0 241L18.8 232C37.7 223 75.3 205 112.8 201C150.3 197 187.7 207 225.2 216C262.7 225 300.3 233 337.8 236C375.3 239 412.7 237 450.2 233C487.7 229 525.3 223 562.8 226C600.3 229 637.7 241 675.2 243C712.7 245 750.3 237 787.8 225C825.3 213 862.7 197 881.3 189L900 181L900 143L881.3 155C862.7 167 825.3 191 787.8 203C750.3 215 712.7 215 675.2 208C637.7 201 600.3 187 562.8 185C525.3 183 487.7 193 450.2 200C412.7 207 375.3 211 337.8 206C300.3 201 262.7 187 225.2 180C187.7 173 150.3 173 112.8 181C75.3 189 37.7 205 18.8 213L0 221Z" fill="#fcaf3c"></path><path d="M0 259L18.8 252C37.7 245 75.3 231 112.8 227C150.3 223 187.7 229 225.2 240C262.7 251 300.3 267 337.8 275C375.3 283 412.7 283 450.2 275C487.7 267 525.3 251 562.8 254C600.3 257 637.7 279 675.2 288C712.7 297 750.3 293 787.8 279C825.3 265 862.7 241 881.3 229L900 217L900 179L881.3 187C862.7 195 825.3 211 787.8 223C750.3 235 712.7 243 675.2 241C637.7 239 600.3 227 562.8 224C525.3 221 487.7 227 450.2 231C412.7 235 375.3 237 337.8 234C300.3 231 262.7 223 225.2 214C187.7 205 150.3 195 112.8 199C75.3 203 37.7 221 18.8 230L0 239Z" fill="#fcaf3c"></path><path d="M0 283L18.8 276C37.7 269 75.3 255 112.8 253C150.3 251 187.7 261 225.2 272C262.7 283 300.3 295 337.8 301C375.3 307 412.7 307 450.2 300C487.7 293 525.3 279 562.8 283C600.3 287 637.7 309 675.2 316C712.7 323 750.3 315 787.8 299C825.3 283 862.7 259 881.3 247L900 235L900 215L881.3 227C862.7 239 825.3 263 787.8 277C750.3 291 712.7 295 675.2 286C637.7 277 600.3 255 562.8 252C525.3 249 487.7 265 450.2 273C412.7 281 375.3 281 337.8 273C300.3 265 262.7 249 225.2 238C187.7 227 150.3 221 112.8 225C75.3 229 37.7 243 18.8 250L0 257Z" fill="#e6b136"></path><path d="M0 325L18.8 322C37.7 319 75.3 313 112.8 311C150.3 309 187.7 311 225.2 317C262.7 323 300.3 333 337.8 339C375.3 345 412.7 347 450.2 345C487.7 343 525.3 337 562.8 344C600.3 351 637.7 371 675.2 371C712.7 371 750.3 351 787.8 334C825.3 317 862.7 303 881.3 296L900 289L900 233L881.3 245C862.7 257 825.3 281 787.8 297C750.3 313 712.7 321 675.2 314C637.7 307 600.3 285 562.8 281C525.3 277 487.7 291 450.2 298C412.7 305 375.3 305 337.8 299C300.3 293 262.7 281 225.2 270C187.7 259 150.3 249 112.8 251C75.3 253 37.7 267 18.8 274L0 281Z" fill="#afb038"></path><path d="M0 355L18.8 355C37.7 355 75.3 355 112.8 353C150.3 351 187.7 347 225.2 353C262.7 359 300.3 375 337.8 383C375.3 391 412.7 391 450.2 387C487.7 383 525.3 375 562.8 377C600.3 379 637.7 391 675.2 390C712.7 389 750.3 375 787.8 360C825.3 345 862.7 329 881.3 321L900 313L900 287L881.3 294C862.7 301 825.3 315 787.8 332C750.3 349 712.7 369 675.2 369C637.7 369 600.3 349 562.8 342C525.3 335 487.7 341 450.2 343C412.7 345 375.3 343 337.8 337C300.3 331 262.7 321 225.2 315C187.7 309 150.3 307 112.8 309C75.3 311 37.7 317 18.8 320L0 323Z" fill="#7caa4a"></path><path d="M0 445L18.8 454C37.7 463 75.3 481 112.8 494C150.3 507 187.7 515 225.2 515C262.7 515 300.3 507 337.8 497C375.3 487 412.7 475 450.2 479C487.7 483 525.3 503 562.8 517C600.3 531 637.7 539 675.2 529C712.7 519 750.3 491 787.8 472C825.3 453 862.7 443 881.3 438L900 433L900 311L881.3 319C862.7 327 825.3 343 787.8 358C750.3 373 712.7 387 675.2 388C637.7 389 600.3 377 562.8 375C525.3 373 487.7 381 450.2 385C412.7 389 375.3 389 337.8 381C300.3 373 262.7 357 225.2 351C187.7 345 150.3 349 112.8 351C75.3 353 37.7 353 18.8 353L0 353Z" fill="#4aa160"></path><path d="M0 601L18.8 601C37.7 601 75.3 601 112.8 601C150.3 601 187.7 601 225.2 601C262.7 601 300.3 601 337.8 601C375.3 601 412.7 601 450.2 601C487.7 601 525.3 601 562.8 601C600.3 601 637.7 601 675.2 601C712.7 601 750.3 601 787.8 601C825.3 601 862.7 601 881.3 601L900 601L900 431L881.3 436C862.7 441 825.3 451 787.8 470C750.3 489 712.7 517 675.2 527C637.7 537 600.3 529 562.8 515C525.3 501 487.7 481 450.2 477C412.7 473 375.3 485 337.8 495C300.3 505 262.7 513 225.2 513C187.7 513 150.3 505 112.8 492C75.3 479 37.7 461 18.8 452L0 443Z" fill="#009473"></path></svg>