<svg xmlns="http://www.w3.org/2000/svg" version="1.1" xmlns:xlink="http://www.w3.org/1999/xlink" xmlns:svgjs="http://svgjs.com/svgjs" width="1440" height="560" preserveAspectRatio="none" viewBox="0 0 1440 560"><g mask="url(&quot;#SvgjsMask1038&quot;)" fill="none"><path d="M1488 560L0 560 L0 296.3Q80.96 257.26, 120 338.23Q140.6 286.83, 192 307.43Q259.28 254.71, 312 321.99Q356.6 246.59, 432 291.18Q492.31 279.5, 504 339.81Q523.5 287.31, 576 306.8Q626.55 237.35, 696 287.9Q775.93 247.83, 816 327.76Q858.46 298.22, 888 340.68Q894.35 275.02, 960 281.37Q1001.08 250.45, 1032 291.53Q1073.18 260.71, 1104 301.89Q1155.57 281.45, 1176 333.02Q1226.6 263.62, 1296 314.21Q1316.07 262.27, 1368 282.34Q1437.45 231.79, 1488 301.24z" fill="rgba(255, 255, 255, 1)"></path><path d="M1536 560L0 560 L0 339.12Q53.94 321.06, 72 374.99Q108.99 291.98, 192 328.96Q236.61 301.56, 264 346.17Q308.36 318.53, 336 362.89Q381.22 336.11, 408 381.32Q443.89 297.21, 528 333.1Q581.94 315.04, 600 368.98Q623.67 320.65, 672 344.32Q752.13 304.44, 792 384.57Q816.58 337.14, 864 361.72Q912.02 289.75, 984 337.77Q1062.61 296.38, 1104 374.99Q1169.86 320.85, 1224 386.71Q1243.4 334.12, 1296 353.52Q1345.24 282.76, 1416 332.01Q1494.67 290.69, 1536 369.36z" fill="rgba(211, 212, 212, 1)"></path><path d="M1488 560L0 560 L0 436.04Q29.65 345.69, 120 375.34Q202.96 338.3, 240 421.26Q266.02 375.28, 312 401.31Q363.03 332.34, 432 383.37Q518.63 350, 552 436.62Q572.48 385.1, 624 405.58Q666.49 376.06, 696 418.55Q713.24 363.79, 768 381.03Q813.47 354.5, 840 399.97Q885.21 373.19, 912 418.4Q954.86 389.26, 984 432.12Q1017.05 345.17, 1104 378.22Q1154.57 356.79, 1176 407.35Q1228.94 340.29, 1296 393.23Q1376.48 353.71, 1416 434.19Q1436.75 382.94, 1488 403.68z" fill="rgba(98, 196, 246, 1)"></path><path d="M1512 560L0 560 L0 434.02Q65.73 379.75, 120 445.49Q162.48 415.97, 192 458.44Q210.69 405.13, 264 423.81Q307.6 395.41, 336 439.02Q410.86 393.88, 456 468.73Q482.98 423.71, 528 450.69Q577.5 380.19, 648 429.69Q727.27 388.96, 768 468.22Q792.38 420.61, 840 444.99Q893.06 426.05, 912 479.11Q920.67 415.78, 984 424.46Q1026.09 394.55, 1056 436.64Q1132.09 392.73, 1176 468.81Q1219.99 440.8, 1248 484.79Q1293.33 410.12, 1368 455.44Q1397.79 413.23, 1440 443.02Q1487.68 418.7, 1512 466.39z" fill="rgba(2, 132, 199, 1)"></path><path d="M1512 560L0 560 L0 513.51Q15.48 456.99, 72 472.46Q116.09 444.55, 144 488.65Q191.95 464.6, 216 512.55Q260.38 484.93, 288 529.31Q309.39 478.7, 360 500.09Q382.71 450.8, 432 473.52Q473.31 442.82, 504 484.13Q553.07 461.2, 576 510.27Q622.12 484.39, 648 530.51Q652.65 463.16, 720 467.81Q785.4 413.21, 840 478.61Q916.37 434.98, 960 511.35Q1025.1 456.45, 1080 521.55Q1116.85 438.4, 1200 475.25Q1275.05 430.3, 1320 505.35Q1374.12 439.47, 1440 493.58Q1463.56 445.14, 1512 468.7z" fill="rgba(1, 74, 111, 1)"></path><path d="M1488 560L0 560 L0 577.57Q31.22 536.79, 72 568.01Q124.08 500.09, 192 552.17Q246.75 486.92, 312 541.67Q363.61 521.27, 384 572.88Q433.99 502.87, 504 552.86Q527.15 504.01, 576 527.16Q632.87 512.03, 648 568.9Q678.07 526.97, 720 557.05Q774.04 491.09, 840 545.13Q913.13 498.26, 960 571.4Q1013.25 504.65, 1080 557.9Q1103.63 509.52, 1152 533.15Q1206.78 515.93, 1224 570.71Q1232.49 507.2, 1296 515.69Q1338.1 485.79, 1368 527.88Q1434.14 474.02, 1488 540.16z" fill="rgba(7, 22, 51, 1)"></path></g><defs><mask id="SvgjsMask1038"><rect width="1440" height="560" fill="#ffffff"></rect></mask></defs></svg>