<svg xmlns="http://www.w3.org/2000/svg" version="1.1" xmlns:xlink="http://www.w3.org/1999/xlink" xmlns:svgjs="http://svgjs.com/svgjs" width="800" height="800" preserveAspectRatio="none" viewBox="0 0 800 800"><g mask="url(&quot;#SvgjsMask1499&quot;)" fill="none"><use xlink:href="#SvgjsG1511" transform="translate(0, 0)" fill="rgba(0, 0, 0, 1)"></use><use xlink:href="#SvgjsG1511" transform="translate(0, 432)" fill="rgba(0, 0, 0, 1)"></use><use xlink:href="#SvgjsG1511" transform="translate(432, 0)" fill="rgba(0, 0, 0, 1)"></use><use xlink:href="#SvgjsG1511" transform="translate(432, 432)" fill="rgba(0, 0, 0, 1)"></use></g><defs><mask id="SvgjsMask1499"><rect width="800" height="800" fill="#ffffff"></rect></mask><g id="SvgjsG1506"><path d="M1.507 0.867v14.666h12.877V0.867h-12.878z m3.76 12.876H3.087V11.564H5.267v2.179z m0-3.328H3.087V8.236H5.267v2.179z m3.768 3.328H6.856V11.564h2.179v2.179z m0-3.328H6.856V8.236h2.179v2.179z m3.775 3.328H10.631v-5.507h2.179v5.507z m0.08-7.65h-9.78V2.602h9.78V6.093z"></path></g><g id="SvgjsG1504"><path d="M7.713 15.485C3.459 15.485 0 12.025 0 7.768 0 3.513 3.459 0.051 7.713 0.051S15.432 3.513 15.432 7.768c0 4.257-3.465 7.716-7.719 7.717z m0-1.91c3.201 0 5.81-2.604 5.81-5.809 0-3.199-2.61-5.807-5.81-5.807-3.202 0-5.804 2.609-5.804 5.807-0.001 3.206 2.602 5.809 5.804 5.809z"></path><path d="M7.753 8.787a0.574 0.574 0 0 1-0.554-0.042 0.578 0.578 0 0 1-0.259-0.399L6.931 3.862a0.58 0.58 0 0 1 1.162 0v3.478l2.975-1.4a0.578 0.578 0 0 1 0.773 0.275c0.138 0.292 0.011 0.637-0.276 0.774l-3.81 1.798z"></path></g><g id="SvgjsG1500"><path d="M14.885 8.725h-1.479v5.687c0.01 1.007 1.48 1.007 1.479 0V8.725z m-1.69 0h-1.479v5.687c0.006 1 1.476 1 1.479 0V8.725z m-3.593 0h-1.479v5.687c0.009 1.007 1.48 1.007 1.479 0V8.725z m-1.691 0h-1.479v5.687c0.006 1 1.477 1 1.479 0V8.725z m-3.592 0h-1.479v5.687c0.009 1.007 1.48 1.007 1.479 0V8.725z m-1.69 0h-1.479v5.687c0.005 1 1.477 1 1.479 0V8.725z"></path><path d="M15.828 8.303a0.57 0.57 0 0 1-0.578 0.577s-3.866 0.005-3.88 0a0.576 0.576 0 0 1-0.576-0.577V4.096a0.793 0.793 0 0 1 0.806-0.807c-0.005-0.005 3.419 0 3.418 0a0.792 0.792 0 0 1 0.808 0.807v4.206h0.001zM13.329 2.944c0.606 0 1.099-0.494 1.095-1.096A1.1 1.1 0 0 0 13.329 0.734a1.119 1.119 0 0 0-1.114 1.114 1.113 1.113 0 0 0 1.114 1.096z m-2.785 5.359a0.567 0.567 0 0 1-0.576 0.577s-3.866 0.005-3.881 0a0.576 0.576 0 0 1-0.576-0.577V4.096a0.794 0.794 0 0 1 0.807-0.807c-0.005-0.005 3.419 0 3.419 0a0.791 0.791 0 0 1 0.807 0.807v4.206zM8.047 2.944c0.605 0 1.099-0.494 1.094-1.096A1.1 1.1 0 0 0 8.047 0.734a1.12 1.12 0 0 0-1.115 1.114 1.114 1.114 0 0 0 1.114 1.096z m-2.787 5.359a0.568 0.568 0 0 1-0.576 0.577s-3.866 0.005-3.88 0a0.576 0.576 0 0 1-0.576-0.577V4.096a0.793 0.793 0 0 1 0.807-0.808c-0.005-0.005 3.42 0 3.419 0a0.791 0.791 0 0 1 0.807 0.807v4.207zM2.763 2.944c0.606 0 1.1-0.494 1.096-1.096A1.1 1.1 0 0 0 2.763 0.734a1.118 1.118 0 0 0-1.113 1.114A1.112 1.112 0 0 0 2.763 2.944z"></path></g><g id="SvgjsG1503"><path d="M2.796 14.654h-1.184C0.792 14.653 0.001 14.052 0 13.006c0 0 0.001-7.471 0-7.494 0.001-0.926 0.773-1.629 1.612-1.63h1.184v10.772z m7.448-10.754V2.352c0.004-0.558-0.49-0.914-1.093-0.91 0 0-2.303-0.004-2.294 0-0.6-0.004-1.103 0.352-1.102 0.91v1.548H3.597v10.772h8.823V3.9h-2.176z m-0.81 0H6.547v-1.593h2.887v1.593z m3.779 10.754h1.184c0.814-0.002 1.605-0.602 1.603-1.648 0 0 0.003-7.471 0-7.494 0.003-0.926-0.77-1.63-1.602-1.631h-1.184v10.772z"></path></g><g id="SvgjsG1505"><path d="M7.45 12.652S6.4 11.121 3.725 11.121C1.274 11.121 0 11.833 0 11.833V1.937s1.274-0.712 3.725-0.729C6.4 1.19 7.45 2.756 7.45 2.756V12.652z m1.087 0s1.05-1.531 3.725-1.531c2.451 0 3.725 0.712 3.725 0.713V1.937s-1.274-0.712-3.725-0.729c-2.675-0.017-3.725 1.548-3.725 1.548v9.896z"></path><path d="M8.012 15.733S6.4 13.411 3.725 13.411c-2.451 0-3.725 0.712-3.725 0.712v-1.186s1.274-0.712 3.725-0.729c2.675-0.018 4.287 2.34 4.287 2.34V15.733z m0 0s1.612-2.323 4.287-2.323c2.451 0 3.725 0.712 3.725 0.712v-1.185s-1.274-0.712-3.725-0.729c-2.675-0.019-4.287 2.339-4.287 2.339v1.185z"></path></g><g id="SvgjsG1510"><path d="M0.045 14.984h15.726V0H0.045v14.984zM1.389 3.404c0-1.105 0.893-2 2.004-2h9.04a2 2 0 0 1 2.002 2V8.838H13.221l-0.751-2.043a0.317 0.317 0 0 0-0.596 0.004c-0.045 0.125-0.212 0.602-0.42 1.194-0.32-1.336-0.993-4.158-0.993-4.158a0.315 0.315 0 0 0-0.326-0.243c-0.155 0.008-0.28 0.126-0.298 0.28s-0.515 4.598-0.664 5.913c-0.269-0.404-0.536-0.808-0.536-0.809a0.318 0.318 0 0 0-0.264-0.139h-1.221a1168.611 1168.611 0 0 0-0.749-2.043 0.32 0.32 0 0 0-0.301-0.206 0.312 0.312 0 0 0-0.294 0.21l-0.424 1.194c-0.319-1.335-0.992-4.158-0.992-4.157a0.317 0.317 0 0 0-0.624 0.037c0-0.001-0.515 4.596-0.664 5.912L2.567 8.977a0.316 0.316 0 0 0-0.263-0.139H1.389V3.404z m11.043 10.332H3.392a2 2 0 0 1-2.003-2.005v-2.261h0.741c0.156 0.233 0.924 1.389 0.924 1.39a0.318 0.318 0 0 0 0.58-0.14c0.016-0.133 0.341-3.034 0.56-4.975 0.366 1.541 0.821 3.439 0.821 3.439 0.031 0.137 0.15 0.236 0.29 0.243 0.142 0.008 0.269-0.079 0.316-0.211 0 0 0.257-0.731 0.487-1.377 0.243 0.661 0.526 1.423 0.526 1.423a0.312 0.312 0 0 0 0.295 0.208h1.271c0.156 0.232 0.925 1.389 0.925 1.389a0.316 0.316 0 0 0 0.337 0.132c0.131-0.03 0.227-0.14 0.241-0.272s0.342-3.034 0.561-4.976c0.366 1.543 0.819 3.44 0.82 3.44 0.032 0.137 0.15 0.236 0.29 0.243 0.142 0.008 0.269-0.079 0.315-0.211 0 0 0.26-0.731 0.488-1.377 0.242 0.661 0.523 1.423 0.523 1.423a0.315 0.315 0 0 0 0.296 0.208h1.436v2.261a2.001 2.001 0 0 1-2 2.003z" fill-rule="evenodd"></path></g><g id="SvgjsG1509"><path d="M1.316 13.81h14.019V3.175H1.316v10.635z m12.302-9.643L9.143 8.635c-0.457 0.459-1.269 0.448-1.735-0.018l-4.444-4.45h10.648z m-11.31 0.693l3.626 3.638-3.637 3.644 0.007-7.278z m0.654 7.97l3.641-3.635 0.156 0.149c0.86 0.818 2.228 0.818 3.049 0l0.156-0.156 3.663 3.644h-10.667z m11.353-0.693L10.677 8.501 14.311 4.862V12.142z" fill-rule="evenodd"></path></g><g id="SvgjsG1508"><path d="M11.675 13.031H3.563V2.436h8.112v10.595z m-4.054 1.54a0.457 0.457 0 1 1 0-0.912 0.457 0.457 0 0 1 0 0.912zM6.921 1.287h1.395c0.196 0 0.196 0.356 0 0.356h-1.397c-0.199 0-0.199-0.356 0-0.356zM11.495 0.409H3.744C3.413 0.409 3.143 0.761 3.143 1.191V14.276c0 0.427 0.267 0.779 0.601 0.778h7.751c0.332 0 0.604-0.35 0.605-0.778V1.191c0-0.432-0.272-0.782-0.605-0.782z" fill-rule="evenodd"></path></g><g id="SvgjsG1502"><path d="M3.536 11.602h4.034c0.389 0.183 3.806 2.583 4.382 2.972l0.011-2.995h-0.022a2.761 2.761 0 0 0 2.422-2.742V3.09c0-1.527-1.234-2.766-2.765-2.765H3.538c-1.531 0-2.766 1.239-2.765 2.765v5.747c0 1.525 1.239 2.766 2.765 2.765z" fill-rule="evenodd"></path></g><g id="SvgjsG1501"><path d="M6.498 9.304L12.139 3.663l1.565 1.566-5.641 5.641z"></path><path d="M6.8 0.457h2.541v8.028H6.8z"></path><path d="M8.072 10.876L2.429 5.238l1.563-1.566L9.636 9.313zM1.2 13.277h13.733v2.266H1.2z"></path><path d="M0.733 9.143h2.267v6.4h-2.267z m12.267 0h2.267v6.4h-2.267z"></path></g><g id="SvgjsG1507"><path d="M8 2.545C2.984 2.545 0.007 8 0.007 8S2.984 13.455 8 13.455 15.993 8 15.993 8 13.016 2.545 8 2.545z m0 8.71c-1.795 0-3.255-1.46-3.255-3.255S6.205 4.745 8 4.745 11.254 6.205 11.254 8s-1.46 3.255-3.254 3.255z"></path><path d="M6.079 8.078a1.921 1.921 0 1 0 3.842 0 1.921 1.921 0 1 0-3.842 0"></path></g><g id="SvgjsG1511"><use xlink:href="#SvgjsG1500" transform="translate(0, 0) scale(1.8)" fill="rgba(0, 0, 0, 1)"></use><use xlink:href="#SvgjsG1501" transform="translate(0, 43.2) scale(1.8)" fill="rgba(0, 0, 0, 1)"></use><use xlink:href="#SvgjsG1502" transform="translate(0, 86.4) scale(1.8)" fill="rgba(0, 0, 0, 1)"></use><use xlink:href="#SvgjsG1502" transform="translate(0, 129.60000000000002) scale(1.8)" fill="rgba(0, 0, 0, 1)"></use><use xlink:href="#SvgjsG1501" transform="translate(0, 172.8) scale(1.8)" fill="rgba(0, 0, 0, 1)"></use><use xlink:href="#SvgjsG1500" transform="translate(0, 216) scale(1.8)" fill="rgba(0, 0, 0, 1)"></use><use xlink:href="#SvgjsG1503" transform="translate(0, 259.20000000000005) scale(1.8)" fill="rgba(0, 0, 0, 1)"></use><use xlink:href="#SvgjsG1504" transform="translate(0, 302.40000000000003) scale(1.8)" fill="rgba(0, 0, 0, 1)"></use><use xlink:href="#SvgjsG1505" transform="translate(0, 345.6) scale(1.8)" fill="rgba(0, 0, 0, 1)"></use><use xlink:href="#SvgjsG1506" transform="translate(0, 388.8) scale(1.8)" fill="rgba(0, 0, 0, 1)"></use><use xlink:href="#SvgjsG1507" transform="translate(43.2, 0) scale(1.8)" fill="rgba(0, 0, 0, 1)"></use><use xlink:href="#SvgjsG1505" transform="translate(43.2, 43.2) scale(1.8)" fill="rgba(0, 0, 0, 1)"></use><use xlink:href="#SvgjsG1503" transform="translate(43.2, 86.4) scale(1.8)" fill="rgba(0, 0, 0, 1)"></use><use xlink:href="#SvgjsG1507" transform="translate(43.2, 129.60000000000002) scale(1.8)" fill="rgba(0, 0, 0, 1)"></use><use xlink:href="#SvgjsG1508" transform="translate(43.2, 172.8) scale(1.8)" fill="rgba(0, 0, 0, 1)"></use><use xlink:href="#SvgjsG1502" transform="translate(43.2, 216) scale(1.8)" fill="rgba(0, 0, 0, 1)"></use><use xlink:href="#SvgjsG1501" transform="translate(43.2, 259.20000000000005) scale(1.8)" fill="rgba(0, 0, 0, 1)"></use><use xlink:href="#SvgjsG1500" transform="translate(43.2, 302.40000000000003) scale(1.8)" fill="rgba(0, 0, 0, 1)"></use><use xlink:href="#SvgjsG1509" transform="translate(43.2, 345.6) scale(1.8)" fill="rgba(0, 0, 0, 1)"></use><use xlink:href="#SvgjsG1509" transform="translate(43.2, 388.8) scale(1.8)" fill="rgba(0, 0, 0, 1)"></use><use xlink:href="#SvgjsG1503" transform="translate(86.4, 0) scale(1.8)" fill="rgba(0, 0, 0, 1)"></use><use xlink:href="#SvgjsG1508" transform="translate(86.4, 43.2) scale(1.8)" fill="rgba(0, 0, 0, 1)"></use><use xlink:href="#SvgjsG1510" transform="translate(86.4, 86.4) scale(1.8)" fill="rgba(0, 0, 0, 1)"></use><use xlink:href="#SvgjsG1505" transform="translate(86.4, 129.60000000000002) scale(1.8)" fill="rgba(0, 0, 0, 1)"></use><use xlink:href="#SvgjsG1509" transform="translate(86.4, 172.8) scale(1.8)" fill="rgba(0, 0, 0, 1)"></use><use xlink:href="#SvgjsG1503" transform="translate(86.4, 216) scale(1.8)" fill="rgba(0, 0, 0, 1)"></use><use xlink:href="#SvgjsG1502" transform="translate(86.4, 259.20000000000005) scale(1.8)" fill="rgba(0, 0, 0, 1)"></use><use xlink:href="#SvgjsG1508" transform="translate(86.4, 302.40000000000003) scale(1.8)" fill="rgba(0, 0, 0, 1)"></use><use xlink:href="#SvgjsG1500" transform="translate(86.4, 345.6) scale(1.8)" fill="rgba(0, 0, 0, 1)"></use><use xlink:href="#SvgjsG1507" transform="translate(86.4, 388.8) scale(1.8)" fill="rgba(0, 0, 0, 1)"></use><use xlink:href="#SvgjsG1504" transform="translate(129.60000000000002, 0) scale(1.8)" fill="rgba(0, 0, 0, 1)"></use><use xlink:href="#SvgjsG1502" transform="translate(129.60000000000002, 43.2) scale(1.8)" fill="rgba(0, 0, 0, 1)"></use><use xlink:href="#SvgjsG1504" transform="translate(129.60000000000002, 86.4) scale(1.8)" fill="rgba(0, 0, 0, 1)"></use><use xlink:href="#SvgjsG1510" transform="translate(129.60000000000002, 129.60000000000002) scale(1.8)" fill="rgba(0, 0, 0, 1)"></use><use xlink:href="#SvgjsG1505" transform="translate(129.60000000000002, 172.8) scale(1.8)" fill="rgba(0, 0, 0, 1)"></use><use xlink:href="#SvgjsG1508" transform="translate(129.60000000000002, 216) scale(1.8)" fill="rgba(0, 0, 0, 1)"></use><use xlink:href="#SvgjsG1503" transform="translate(129.60000000000002, 259.20000000000005) scale(1.8)" fill="rgba(0, 0, 0, 1)"></use><use xlink:href="#SvgjsG1506" transform="translate(129.60000000000002, 302.40000000000003) scale(1.8)" fill="rgba(0, 0, 0, 1)"></use><use xlink:href="#SvgjsG1500" transform="translate(129.60000000000002, 345.6) scale(1.8)" fill="rgba(0, 0, 0, 1)"></use><use xlink:href="#SvgjsG1500" transform="translate(129.60000000000002, 388.8) scale(1.8)" fill="rgba(0, 0, 0, 1)"></use><use xlink:href="#SvgjsG1503" transform="translate(172.8, 0) scale(1.8)" fill="rgba(0, 0, 0, 1)"></use><use xlink:href="#SvgjsG1507" transform="translate(172.8, 43.2) scale(1.8)" fill="rgba(0, 0, 0, 1)"></use><use xlink:href="#SvgjsG1503" transform="translate(172.8, 86.4) scale(1.8)" fill="rgba(0, 0, 0, 1)"></use><use xlink:href="#SvgjsG1500" transform="translate(172.8, 129.60000000000002) scale(1.8)" fill="rgba(0, 0, 0, 1)"></use><use xlink:href="#SvgjsG1507" transform="translate(172.8, 172.8) scale(1.8)" fill="rgba(0, 0, 0, 1)"></use><use xlink:href="#SvgjsG1500" transform="translate(172.8, 216) scale(1.8)" fill="rgba(0, 0, 0, 1)"></use><use xlink:href="#SvgjsG1505" transform="translate(172.8, 259.20000000000005) scale(1.8)" fill="rgba(0, 0, 0, 1)"></use><use xlink:href="#SvgjsG1500" transform="translate(172.8, 302.40000000000003) scale(1.8)" fill="rgba(0, 0, 0, 1)"></use><use xlink:href="#SvgjsG1509" transform="translate(172.8, 345.6) scale(1.8)" fill="rgba(0, 0, 0, 1)"></use><use xlink:href="#SvgjsG1508" transform="translate(172.8, 388.8) scale(1.8)" fill="rgba(0, 0, 0, 1)"></use><use xlink:href="#SvgjsG1505" transform="translate(216, 0) scale(1.8)" fill="rgba(0, 0, 0, 1)"></use><use xlink:href="#SvgjsG1505" transform="translate(216, 43.2) scale(1.8)" fill="rgba(0, 0, 0, 1)"></use><use xlink:href="#SvgjsG1504" transform="translate(216, 86.4) scale(1.8)" fill="rgba(0, 0, 0, 1)"></use><use xlink:href="#SvgjsG1503" transform="translate(216, 129.60000000000002) scale(1.8)" fill="rgba(0, 0, 0, 1)"></use><use xlink:href="#SvgjsG1510" transform="translate(216, 172.8) scale(1.8)" fill="rgba(0, 0, 0, 1)"></use><use xlink:href="#SvgjsG1505" transform="translate(216, 216) scale(1.8)" fill="rgba(0, 0, 0, 1)"></use><use xlink:href="#SvgjsG1509" transform="translate(216, 259.20000000000005) scale(1.8)" fill="rgba(0, 0, 0, 1)"></use><use xlink:href="#SvgjsG1501" transform="translate(216, 302.40000000000003) scale(1.8)" fill="rgba(0, 0, 0, 1)"></use><use xlink:href="#SvgjsG1501" transform="translate(216, 345.6) scale(1.8)" fill="rgba(0, 0, 0, 1)"></use><use xlink:href="#SvgjsG1500" transform="translate(216, 388.8) scale(1.8)" fill="rgba(0, 0, 0, 1)"></use><use xlink:href="#SvgjsG1500" transform="translate(259.20000000000005, 0) scale(1.8)" fill="rgba(0, 0, 0, 1)"></use><use xlink:href="#SvgjsG1509" transform="translate(259.20000000000005, 43.2) scale(1.8)" fill="rgba(0, 0, 0, 1)"></use><use xlink:href="#SvgjsG1500" transform="translate(259.20000000000005, 86.4) scale(1.8)" fill="rgba(0, 0, 0, 1)"></use><use xlink:href="#SvgjsG1510" transform="translate(259.20000000000005, 129.60000000000002) scale(1.8)" fill="rgba(0, 0, 0, 1)"></use><use xlink:href="#SvgjsG1501" transform="translate(259.20000000000005, 172.8) scale(1.8)" fill="rgba(0, 0, 0, 1)"></use><use xlink:href="#SvgjsG1508" transform="translate(259.20000000000005, 216) scale(1.8)" fill="rgba(0, 0, 0, 1)"></use><use xlink:href="#SvgjsG1503" transform="translate(259.20000000000005, 259.20000000000005) scale(1.8)" fill="rgba(0, 0, 0, 1)"></use><use xlink:href="#SvgjsG1505" transform="translate(259.20000000000005, 302.40000000000003) scale(1.8)" fill="rgba(0, 0, 0, 1)"></use><use xlink:href="#SvgjsG1501" transform="translate(259.20000000000005, 345.6) scale(1.8)" fill="rgba(0, 0, 0, 1)"></use><use xlink:href="#SvgjsG1504" transform="translate(259.20000000000005, 388.8) scale(1.8)" fill="rgba(0, 0, 0, 1)"></use><use xlink:href="#SvgjsG1506" transform="translate(302.40000000000003, 0) scale(1.8)" fill="rgba(0, 0, 0, 1)"></use><use xlink:href="#SvgjsG1510" transform="translate(302.40000000000003, 43.2) scale(1.8)" fill="rgba(0, 0, 0, 1)"></use><use xlink:href="#SvgjsG1501" transform="translate(302.40000000000003, 86.4) scale(1.8)" fill="rgba(0, 0, 0, 1)"></use><use xlink:href="#SvgjsG1510" transform="translate(302.40000000000003, 129.60000000000002) scale(1.8)" fill="rgba(0, 0, 0, 1)"></use><use xlink:href="#SvgjsG1501" transform="translate(302.40000000000003, 172.8) scale(1.8)" fill="rgba(0, 0, 0, 1)"></use><use xlink:href="#SvgjsG1506" transform="translate(302.40000000000003, 216) scale(1.8)" fill="rgba(0, 0, 0, 1)"></use><use xlink:href="#SvgjsG1500" transform="translate(302.40000000000003, 259.20000000000005) scale(1.8)" fill="rgba(0, 0, 0, 1)"></use><use xlink:href="#SvgjsG1506" transform="translate(302.40000000000003, 302.40000000000003) scale(1.8)" fill="rgba(0, 0, 0, 1)"></use><use xlink:href="#SvgjsG1510" transform="translate(302.40000000000003, 345.6) scale(1.8)" fill="rgba(0, 0, 0, 1)"></use><use xlink:href="#SvgjsG1505" transform="translate(302.40000000000003, 388.8) scale(1.8)" fill="rgba(0, 0, 0, 1)"></use><use xlink:href="#SvgjsG1501" transform="translate(345.6, 0) scale(1.8)" fill="rgba(0, 0, 0, 1)"></use><use xlink:href="#SvgjsG1504" transform="translate(345.6, 43.2) scale(1.8)" fill="rgba(0, 0, 0, 1)"></use><use xlink:href="#SvgjsG1509" transform="translate(345.6, 86.4) scale(1.8)" fill="rgba(0, 0, 0, 1)"></use><use xlink:href="#SvgjsG1500" transform="translate(345.6, 129.60000000000002) scale(1.8)" fill="rgba(0, 0, 0, 1)"></use><use xlink:href="#SvgjsG1503" transform="translate(345.6, 172.8) scale(1.8)" fill="rgba(0, 0, 0, 1)"></use><use xlink:href="#SvgjsG1505" transform="translate(345.6, 216) scale(1.8)" fill="rgba(0, 0, 0, 1)"></use><use xlink:href="#SvgjsG1507" transform="translate(345.6, 259.20000000000005) scale(1.8)" fill="rgba(0, 0, 0, 1)"></use><use xlink:href="#SvgjsG1504" transform="translate(345.6, 302.40000000000003) scale(1.8)" fill="rgba(0, 0, 0, 1)"></use><use xlink:href="#SvgjsG1504" transform="translate(345.6, 345.6) scale(1.8)" fill="rgba(0, 0, 0, 1)"></use><use xlink:href="#SvgjsG1508" transform="translate(345.6, 388.8) scale(1.8)" fill="rgba(0, 0, 0, 1)"></use><use xlink:href="#SvgjsG1504" transform="translate(388.8, 0) scale(1.8)" fill="rgba(0, 0, 0, 1)"></use><use xlink:href="#SvgjsG1503" transform="translate(388.8, 43.2) scale(1.8)" fill="rgba(0, 0, 0, 1)"></use><use xlink:href="#SvgjsG1500" transform="translate(388.8, 86.4) scale(1.8)" fill="rgba(0, 0, 0, 1)"></use><use xlink:href="#SvgjsG1507" transform="translate(388.8, 129.60000000000002) scale(1.8)" fill="rgba(0, 0, 0, 1)"></use><use xlink:href="#SvgjsG1507" transform="translate(388.8, 172.8) scale(1.8)" fill="rgba(0, 0, 0, 1)"></use><use xlink:href="#SvgjsG1510" transform="translate(388.8, 216) scale(1.8)" fill="rgba(0, 0, 0, 1)"></use><use xlink:href="#SvgjsG1510" transform="translate(388.8, 259.20000000000005) scale(1.8)" fill="rgba(0, 0, 0, 1)"></use><use xlink:href="#SvgjsG1510" transform="translate(388.8, 302.40000000000003) scale(1.8)" fill="rgba(0, 0, 0, 1)"></use><use xlink:href="#SvgjsG1505" transform="translate(388.8, 345.6) scale(1.8)" fill="rgba(0, 0, 0, 1)"></use><use xlink:href="#SvgjsG1504" transform="translate(388.8, 388.8) scale(1.8)" fill="rgba(0, 0, 0, 1)"></use></g></defs></svg>