<svg xmlns="http://www.w3.org/2000/svg" version="1.1" xmlns:xlink="http://www.w3.org/1999/xlink" xmlns:svgjs="http://svgjs.com/svgjs" width="1440" height="560" preserveAspectRatio="none" viewBox="0 0 1440 560">
    <g mask="url(&quot;#SvgjsMask1054&quot;)" fill="none">
        <path d="M859.88-96.61C714.83-38.5 773.64 405.32 489.29 406.68 204.94 408.04-55.3 147.35-251.89 143.48" stroke="rgba(2, 132, 199, 1)" stroke-width="2"></path>
        <path d="M1311.93-42.68C1134.08-37.59 1005.54 217.4 652.85 225.88 300.17 234.36 168.69 457.59-6.22 461.08" stroke="rgba(2, 132, 199, 1)" stroke-width="2"></path>
        <path d="M642.44-100.52C494.16-76.23 416.5 284.25 181.47 285.15-53.57 286.05-153.8 87.89-279.51 83.55" stroke="rgba(2, 132, 199, 1)" stroke-width="2"></path>
        <path d="M1006.56-8.7C875.12 7.48 801.46 302.21 579.4 304.57 357.34 306.93 365.82 234.57 152.24 234.57-61.34 234.57-166.71 304.34-274.92 304.57" stroke="rgba(2, 132, 199, 1)" stroke-width="2"></path>
        <path d="M618.64-2.92C505.7 74.18 576.64 475.1 369.87 484.23 163.11 493.36 0.82 356.47-127.66 355.43" stroke="rgba(2, 132, 199, 1)" stroke-width="2"></path>
    </g>
    <defs>
        <mask id="SvgjsMask1054">
            <rect width="1440" height="560" fill="#ffffff"></rect>
        </mask>
    </defs>
</svg>