<svg xmlns="http://www.w3.org/2000/svg" version="1.1" xmlns:xlink="http://www.w3.org/1999/xlink" xmlns:svgjs="http://svgjs.com/svgjs" width="800" height="1200" preserveAspectRatio="none" viewBox="0 0 800 1200"><g mask="url(&quot;#SvgjsMask1364&quot;)" fill="none"><path d="M225 164L-145 163" stroke-width="6" stroke="url(#SvgjsLinearGradient1365)" stroke-linecap="round" class="Right"></path><path d="M761 959L476 958" stroke-width="6" stroke="url(#SvgjsLinearGradient1366)" stroke-linecap="round" class="Right"></path><path d="M500 434L151 433" stroke-width="10" stroke="url(#SvgjsLinearGradient1366)" stroke-linecap="round" class="Right"></path><path d="M217 350L485 349" stroke-width="6" stroke="url(#SvgjsLinearGradient1367)" stroke-linecap="round" class="Right"></path><path d="M182 841L485 840" stroke-width="8" stroke="url(#SvgjsLinearGradient1368)" stroke-linecap="round" class="Left"></path><path d="M17 1193L304 1192" stroke-width="8" stroke="url(#SvgjsLinearGradient1369)" stroke-linecap="round" class="Left"></path><path d="M782 1128L1316 1127" stroke-width="10" stroke="url(#SvgjsLinearGradient1370)" stroke-linecap="round" class="Right"></path><path d="M18 534L-407 533" stroke-width="8" stroke="url(#SvgjsLinearGradient1371)" stroke-linecap="round" class="Left"></path><path d="M361 266L63 265" stroke-width="10" stroke="url(#SvgjsLinearGradient1366)" stroke-linecap="round" class="Right"></path><path d="M583 440L1043 439" stroke-width="6" stroke="url(#SvgjsLinearGradient1368)" stroke-linecap="round" class="Left"></path><path d="M252 898L644 897" stroke-width="10" stroke="url(#SvgjsLinearGradient1370)" stroke-linecap="round" class="Right"></path><path d="M507 982L239 981" stroke-width="6" stroke="url(#SvgjsLinearGradient1371)" stroke-linecap="round" class="Left"></path><path d="M108 897L-199 896" stroke-width="8" stroke="url(#SvgjsLinearGradient1367)" stroke-linecap="round" class="Right"></path><path d="M616 857L954 856" stroke-width="6" stroke="url(#SvgjsLinearGradient1371)" stroke-linecap="round" class="Left"></path><path d="M541 812L291 811" stroke-width="8" stroke="url(#SvgjsLinearGradient1368)" stroke-linecap="round" class="Left"></path><path d="M652 740L326 739" stroke-width="8" stroke="url(#SvgjsLinearGradient1365)" stroke-linecap="round" class="Right"></path><path d="M565 656L1085 655" stroke-width="6" stroke="url(#SvgjsLinearGradient1369)" stroke-linecap="round" class="Left"></path><path d="M163 608L-37 607" stroke-width="6" stroke="url(#SvgjsLinearGradient1369)" stroke-linecap="round" class="Left"></path><path d="M420 603L-111 602" stroke-width="8" stroke="url(#SvgjsLinearGradient1365)" stroke-linecap="round" class="Right"></path><path d="M386 1116L-65 1115" stroke-width="8" stroke="url(#SvgjsLinearGradient1370)" stroke-linecap="round" class="Right"></path><path d="M448 331L818 330" stroke-width="6" stroke="url(#SvgjsLinearGradient1365)" stroke-linecap="round" class="Right"></path><path d="M714 137L1241 136" stroke-width="8" stroke="url(#SvgjsLinearGradient1367)" stroke-linecap="round" class="Right"></path><path d="M250 76L582 75" stroke-width="8" stroke="url(#SvgjsLinearGradient1366)" stroke-linecap="round" class="Right"></path><path d="M172 317L723 316" stroke-width="10" stroke="url(#SvgjsLinearGradient1371)" stroke-linecap="round" class="Left"></path><path d="M176 18L488 17" stroke-width="8" stroke="url(#SvgjsLinearGradient1365)" stroke-linecap="round" class="Right"></path><path d="M640 842L956 841" stroke-width="10" stroke="url(#SvgjsLinearGradient1366)" stroke-linecap="round" class="Right"></path><path d="M155 717L-113 716" stroke-width="6" stroke="url(#SvgjsLinearGradient1365)" stroke-linecap="round" class="Right"></path><path d="M245 680L559 679" stroke-width="8" stroke="url(#SvgjsLinearGradient1369)" stroke-linecap="round" class="Left"></path><path d="M703 329L1065 328" stroke-width="6" stroke="url(#SvgjsLinearGradient1365)" stroke-linecap="round" class="Right"></path><path d="M152 403L-104 402" stroke-width="8" stroke="url(#SvgjsLinearGradient1366)" stroke-linecap="round" class="Right"></path></g><defs><mask id="SvgjsMask1364"><rect width="800" height="1200" fill="#ffffff"></rect></mask><linearGradient x1="0%" y1="0%" x2="100%" y2="0%" id="SvgjsLinearGradient1365"><stop stop-color="rgba(187, 187, 187, 0)" offset="0"></stop><stop stop-color="rgba(187, 187, 187, 1)" offset="1"></stop></linearGradient><linearGradient x1="0%" y1="0%" x2="100%" y2="0%" id="SvgjsLinearGradient1366"><stop stop-color="rgba(146, 196, 241, 0)" offset="0"></stop><stop stop-color="rgba(146, 196, 241, 1)" offset="1"></stop></linearGradient><linearGradient x1="0%" y1="0%" x2="100%" y2="0%" id="SvgjsLinearGradient1367"><stop stop-color="rgba(245, 245, 245, 0)" offset="0"></stop><stop stop-color="rgba(245, 245, 245, 1)" offset="1"></stop></linearGradient><linearGradient x1="100%" y1="0%" x2="0%" y2="0%" id="SvgjsLinearGradient1368"><stop stop-color="rgba(146, 196, 241, 0)" offset="0"></stop><stop stop-color="rgba(146, 196, 241, 1)" offset="1"></stop></linearGradient><linearGradient x1="100%" y1="0%" x2="0%" y2="0%" id="SvgjsLinearGradient1369"><stop stop-color="rgba(187, 187, 187, 0)" offset="0"></stop><stop stop-color="rgba(187, 187, 187, 1)" offset="1"></stop></linearGradient><linearGradient x1="0%" y1="0%" x2="100%" y2="0%" id="SvgjsLinearGradient1370"><stop stop-color="rgba(2, 132, 199, 0)" offset="0"></stop><stop stop-color="rgba(2, 132, 199, 1)" offset="1"></stop></linearGradient><linearGradient x1="100%" y1="0%" x2="0%" y2="0%" id="SvgjsLinearGradient1371"><stop stop-color="rgba(245, 245, 245, 0)" offset="0"></stop><stop stop-color="rgba(245, 245, 245, 1)" offset="1"></stop></linearGradient></defs></svg>