<svg xmlns="http://www.w3.org/2000/svg" version="1.1" xmlns:xlink="http://www.w3.org/1999/xlink" xmlns:svgjs="http://svgjs.com/svgjs" width="800" height="800" preserveAspectRatio="none" viewBox="0 0 800 800"><g mask="url(&quot;#SvgjsMask5121&quot;)" fill="none"><rect width="238.48" height="238.48" clip-path="url(&quot;#SvgjsClipPath5122&quot;)" x="-29.79" y="-37.54" fill="url(#SvgjsPattern5123)" transform="rotate(109.13, 89.45, 81.7)"></rect><rect width="60" height="60" clip-path="url(&quot;#SvgjsClipPath5124&quot;)" x="128.29" y="510.75" fill="url(#SvgjsPattern5125)" transform="rotate(53.71, 158.29, 540.75)"></rect><rect width="300" height="300" clip-path="url(&quot;#SvgjsClipPath5126&quot;)" x="298.47" y="303.34" fill="url(#SvgjsPattern5127)" transform="rotate(79.17, 448.47, 453.34)"></rect><circle r="132.23069995753016" cx="369.33" cy="491.7" stroke="rgba(2, 132, 199, 1)" stroke-width="2.55" stroke-dasharray="2, 2"></circle><rect width="274.56" height="274.56" clip-path="url(&quot;#SvgjsClipPath5128&quot;)" x="600.02" y="568" fill="url(#SvgjsPattern5129)" transform="rotate(218.94, 737.3, 705.28)"></rect></g><defs><mask id="SvgjsMask5121"><rect width="800" height="800" fill="#ffffff"></rect></mask><pattern x="0" y="0" width="10.84" height="10.84" patternUnits="userSpaceOnUse" id="SvgjsPattern5123"><path d="M0 10.84L5.42 0L10.84 10.84" stroke="rgba(255, 94, 94, 1)" fill="none"></path></pattern><clipPath id="SvgjsClipPath5122"><circle r="59.62" cx="89.45" cy="81.7"></circle></clipPath><pattern x="0" y="0" width="6" height="6" patternUnits="userSpaceOnUse" id="SvgjsPattern5125"><path d="M0 6L3 0L6 6" stroke="rgba(2, 132, 199, 1)" fill="none"></path></pattern><clipPath id="SvgjsClipPath5124"><circle r="15" cx="158.29" cy="540.75"></circle></clipPath><pattern x="0" y="0" width="6" height="6" patternUnits="userSpaceOnUse" id="SvgjsPattern5127"><path d="M0 6L3 0L6 6" stroke="rgba(255, 94, 94, 1)" fill="none"></path></pattern><clipPath id="SvgjsClipPath5126"><circle r="75" cx="448.47" cy="453.34"></circle></clipPath><pattern x="0" y="0" width="6.24" height="6.24" patternUnits="userSpaceOnUse" id="SvgjsPattern5129"><path d="M0 6.24L3.12 0L6.24 6.24" stroke="rgba(2, 132, 199, 1)" fill="none"></path></pattern><clipPath id="SvgjsClipPath5128"><circle r="68.64" cx="737.3" cy="705.28"></circle></clipPath></defs></svg>