<svg xmlns="http://www.w3.org/2000/svg" version="1.1" xmlns:xlink="http://www.w3.org/1999/xlink" xmlns:svgjs="http://svgjs.com/svgjs" width="800" height="800" preserveAspectRatio="none" viewBox="0 0 800 800"><g mask="url(&quot;#SvgjsMask5955&quot;)" fill="none"><circle r="66.66666666666667" cx="187.09" cy="133.47" fill="rgba(255, 94, 94, 1)"></circle><rect width="360" height="360" clip-path="url(&quot;#SvgjsClipPath5956&quot;)" x="617.01" y="143.68" fill="url(#SvgjsPattern5957)" transform="rotate(67.21, 797.01, 323.68)"></rect><path d="M705.12 660.26 L789.71 774.2L806.7263923911295 657.9186076088705z" fill="rgba(2, 132, 199, 1)"></path><path d="M421.61 680.27L411.78 688.48 401.62 680.69 391.79 688.9 381.62 681.11 371.79 689.32 361.63 681.53M421.44 672.27L411.61 680.48 401.45 672.69 391.62 680.9 381.45 673.11 371.62 681.32 361.46 673.54M421.27 664.27L411.45 672.48 401.28 664.69 391.45 672.9 381.28 665.12 371.45 673.33 361.29 665.54" stroke="rgba(255, 94, 94, 1)" stroke-width="1" stroke-dasharray="3, 3"></path><rect width="252.2" height="252.2" clip-path="url(&quot;#SvgjsClipPath5958&quot;)" x="632.07" y="-93.03" fill="url(#SvgjsPattern5959)" transform="rotate(27.6, 758.17, 33.07)"></rect></g><defs><mask id="SvgjsMask5955"><rect width="800" height="800" fill="#ffffff"></rect></mask><pattern x="0" y="0" width="360" height="6" patternUnits="userSpaceOnUse" id="SvgjsPattern5957"><rect width="360" height="3" x="0" y="0" fill="rgba(2, 132, 199, 1)"></rect><rect width="360" height="3" x="0" y="3" fill="rgba(0, 0, 0, 0)"></rect></pattern><clipPath id="SvgjsClipPath5956"><circle r="90" cx="797.01" cy="323.68"></circle></clipPath><pattern x="0" y="0" width="9.7" height="9.7" patternUnits="userSpaceOnUse" id="SvgjsPattern5959"><path d="M0 9.7L4.85 0L9.7 9.7" stroke="rgba(2, 132, 199, 1)" fill="none"></path></pattern><clipPath id="SvgjsClipPath5958"><circle r="63.05" cx="758.17" cy="33.07"></circle></clipPath></defs></svg>