<svg xmlns="http://www.w3.org/2000/svg" version="1.1" xmlns:xlink="http://www.w3.org/1999/xlink" xmlns:svgjs="http://svgjs.com/svgjs" width="800" height="800" preserveAspectRatio="none" viewBox="0 0 800 800"><g mask="url(&quot;#SvgjsMask6094&quot;)" fill="none"><circle r="79.10973876983026" cx="33.8" cy="162.46" fill="rgba(2, 132, 199, 1)"></circle><path d="M715.82 30.96L712.82 18.52 724.3 12.85 721.29 0.4 732.78-5.26 729.77-17.71 741.26-23.38M723.07 34.36L720.06 21.91 731.55 16.24 728.54 3.79 740.02-1.87 737.02-14.32 748.5-19.99" stroke="rgba(2, 132, 199, 1)" stroke-width="1.16" stroke-dasharray="4, 4"></path><rect width="144" height="144" clip-path="url(&quot;#SvgjsClipPath6095&quot;)" x="17.36" y="325.72" fill="url(#SvgjsPattern6096)" transform="rotate(159.92, 89.36, 397.72)"></rect><rect width="161.28" height="161.28" clip-path="url(&quot;#SvgjsClipPath6097&quot;)" x="566.44" y="71.23" fill="url(#SvgjsPattern6098)" transform="rotate(342.6, 647.08, 151.87)"></rect><rect width="144" height="144" clip-path="url(&quot;#SvgjsClipPath6099&quot;)" x="352.22" y="12.11" fill="url(#SvgjsPattern6100)" transform="rotate(151.85, 424.22, 84.11)"></rect></g><defs><mask id="SvgjsMask6094"><rect width="800" height="800" fill="#ffffff"></rect></mask><pattern x="0" y="0" width="6" height="6" patternUnits="userSpaceOnUse" id="SvgjsPattern6096"><path d="M3 1L3 5M1 3L5 3" stroke="rgba(2, 132, 199, 1)" fill="none" stroke-width="1"></path></pattern><clipPath id="SvgjsClipPath6095"><circle r="36" cx="89.36" cy="397.72"></circle></clipPath><pattern x="0" y="0" width="8.96" height="8.96" patternUnits="userSpaceOnUse" id="SvgjsPattern6098"><path d="M4.48 1L4.48 7.960000000000001M1 4.48L7.960000000000001 4.48" stroke="rgba(2, 132, 199, 1)" fill="none" stroke-width="2.8"></path></pattern><clipPath id="SvgjsClipPath6097"><circle r="40.32" cx="647.08" cy="151.87"></circle></clipPath><pattern x="0" y="0" width="6" height="6" patternUnits="userSpaceOnUse" id="SvgjsPattern6100"><path d="M0 6L3 0L6 6" stroke="rgba(255, 94, 94, 1)" fill="none"></path></pattern><clipPath id="SvgjsClipPath6099"><circle r="36" cx="424.22" cy="84.11"></circle></clipPath></defs></svg>