<svg xmlns="http://www.w3.org/2000/svg" version="1.1" xmlns:xlink="http://www.w3.org/1999/xlink" xmlns:svgjs="http://svgjs.com/svgjs" width="1440" height="800" preserveAspectRatio="none" viewBox="0 0 1440 800"><g mask="url(&quot;#SvgjsMask4212&quot;)" fill="none"><rect width="318.72" height="318.72" clip-path="url(&quot;#SvgjsClipPath4213&quot;)" x="197.2" y="148.75" fill="url(#SvgjsPattern4214)" transform="rotate(61.7, 356.56, 308.11)"></rect><path d="M908.16 243.92L902.02 255.16 889.71 251.64 883.57 262.88 871.26 259.35 865.12 270.59 852.81 267.07M905.08 236.54L898.94 247.78 886.62 244.26 880.48 255.5 868.17 251.97 862.03 263.21 849.72 259.69M901.99 229.16L895.85 240.4 883.54 236.88 877.4 248.11 865.09 244.59 858.95 255.83 846.63 252.31" stroke="rgba(2, 132, 199, 1)" stroke-width="2.26" stroke-dasharray="3, 2"></path><rect width="60" height="60" clip-path="url(&quot;#SvgjsClipPath4215&quot;)" x="712.14" y="587.72" fill="url(#SvgjsPattern4216)" transform="rotate(24.14, 742.14, 617.72)"></rect><path d="M1104.19 327.88a5.6 5.6 0 1 0-7.51 8.31 5.6 5.6 0 1 0 7.51-8.31zM1093.46 339.76a5.6 5.6 0 1 0-7.5 8.31 5.6 5.6 0 1 0 7.5-8.31zM1082.74 351.63a5.6 5.6 0 1 0-7.51 8.31 5.6 5.6 0 1 0 7.51-8.31zM1072.01 363.5a5.6 5.6 0 1 0-7.51 8.31 5.6 5.6 0 1 0 7.51-8.31zM1113.77 293.41a5.6 5.6 0 1 0-7.51 8.31 5.6 5.6 0 1 0 7.51-8.31zM1103.05 305.29a5.6 5.6 0 1 0-7.51 8.31 5.6 5.6 0 1 0 7.51-8.31zM1092.32 317.16a5.6 5.6 0 1 0-7.51 8.31 5.6 5.6 0 1 0 7.51-8.31zM1081.59 329.03a5.6 5.6 0 1 0-7.51 8.31 5.6 5.6 0 1 0 7.51-8.31z" stroke="rgba(2, 132, 199, 1)" stroke-width="1.22" stroke-dasharray="2, 2"></path><path d="M19.83 756.98L14.48 745.35 24.66 737.57 19.31 725.94 29.48 718.17 24.13 706.53 34.31 698.76M27.59 758.91L22.24 747.28 32.42 739.51 27.07 727.87 37.25 720.1 31.9 708.46 42.08 700.69" stroke="rgba(255, 94, 94, 1)" stroke-width="1" stroke-dasharray="4, 4"></path><rect width="304.64" height="304.64" clip-path="url(&quot;#SvgjsClipPath4217&quot;)" x="-31.67" y="349.66" fill="url(#SvgjsPattern4218)" transform="rotate(170.22, 120.65, 501.98)"></rect><path d="M21.75 791.57a5.6 5.6 0 1 0-1.61 11.09 5.6 5.6 0 1 0 1.61-11.09zM19.45 807.41a5.6 5.6 0 1 0-1.61 11.08 5.6 5.6 0 1 0 1.61-11.08zM17.15 823.24a5.6 5.6 0 1 0-1.6 11.09 5.6 5.6 0 1 0 1.6-11.09zM14.86 839.08a5.6 5.6 0 1 0-1.61 11.08 5.6 5.6 0 1 0 1.61-11.08z" fill="rgba(255, 94, 94, 1)"></path><path d="M146.97 197.1a5.6 5.6 0 1 0 5.19 9.93 5.6 5.6 0 1 0-5.19-9.93zM154.38 211.28a5.6 5.6 0 1 0 5.18 9.93 5.6 5.6 0 1 0-5.18-9.93zM161.79 225.46a5.6 5.6 0 1 0 5.18 9.93 5.6 5.6 0 1 0-5.18-9.93zM169.19 239.65a5.6 5.6 0 1 0 5.19 9.92 5.6 5.6 0 1 0-5.19-9.92zM117.97 176.15a5.6 5.6 0 1 0 5.19 9.92 5.6 5.6 0 1 0-5.19-9.92zM125.38 190.33a5.6 5.6 0 1 0 5.19 9.92 5.6 5.6 0 1 0-5.19-9.92zM132.79 204.51a5.6 5.6 0 1 0 5.18 9.93 5.6 5.6 0 1 0-5.18-9.93zM140.2 218.69a5.6 5.6 0 1 0 5.18 9.93 5.6 5.6 0 1 0-5.18-9.93zM88.97 155.19a5.6 5.6 0 1 0 5.19 9.93 5.6 5.6 0 1 0-5.19-9.93zM96.38 169.37a5.6 5.6 0 1 0 5.19 9.93 5.6 5.6 0 1 0-5.19-9.93zM103.79 183.55a5.6 5.6 0 1 0 5.19 9.93 5.6 5.6 0 1 0-5.19-9.93zM111.2 197.73a5.6 5.6 0 1 0 5.18 9.93 5.6 5.6 0 1 0-5.18-9.93z" stroke="rgba(2, 132, 199, 1)" stroke-width="1.87" stroke-dasharray="3, 3"></path><path d="M216.71 302.71000000000004 L334.08 213.47L331.292501217779 313.987501217779z" stroke="rgba(2, 132, 199, 1)" stroke-width="1" stroke-dasharray="4, 4"></path></g><defs><mask id="SvgjsMask4212"><rect width="1440" height="800" fill="#ffffff"></rect></mask><pattern x="0" y="0" width="13.28" height="13.28" patternUnits="userSpaceOnUse" id="SvgjsPattern4214"><path d="M6.64 1L6.64 12.28M1 6.64L12.28 6.64" stroke="rgba(2, 132, 199, 1)" fill="none" stroke-width="1.4"></path></pattern><clipPath id="SvgjsClipPath4213"><circle r="79.68" cx="356.56" cy="308.11"></circle></clipPath><pattern x="0" y="0" width="6" height="6" patternUnits="userSpaceOnUse" id="SvgjsPattern4216"><path d="M3 1L3 5M1 3L5 3" stroke="rgba(255, 94, 94, 1)" fill="none" stroke-width="1.89"></path></pattern><clipPath id="SvgjsClipPath4215"><circle r="15" cx="742.14" cy="617.72"></circle></clipPath><pattern x="0" y="0" width="9.52" height="9.52" patternUnits="userSpaceOnUse" id="SvgjsPattern4218"><path d="M0 9.52L4.76 0L9.52 9.52" stroke="rgba(255, 94, 94, 1)" fill="none"></path></pattern><clipPath id="SvgjsClipPath4217"><circle r="76.16" cx="120.65" cy="501.98"></circle></clipPath></defs></svg>