<svg xmlns="http://www.w3.org/2000/svg" version="1.1" xmlns:xlink="http://www.w3.org/1999/xlink" xmlns:svgjs="http://svgjs.com/svgjs" width="800" height="800" preserveAspectRatio="none" viewBox="0 0 800 800"><g mask="url(&quot;#SvgjsMask5023&quot;)" fill="none"><path d="M57.6 328.93L67.8 336.67 62.49 348.33 72.69 356.07 67.38 367.72 77.58 375.46 72.27 387.11M49.84 330.89L60.04 338.63 54.73 350.28 64.93 358.02 59.62 369.68 69.82 377.42 64.51 389.07" stroke="rgba(255, 94, 94, 1)" stroke-width="1.7" stroke-dasharray="2, 2"></path><rect width="120" height="120" clip-path="url(&quot;#SvgjsClipPath5024&quot;)" x="695.77" y="280.31" fill="url(#SvgjsPattern5025)" transform="rotate(134.48, 755.77, 340.31)"></rect><path d="M408.51 273.56 L325.53999999999996 356.29999999999995L284.8863507995145 232.79135079951448z" stroke="rgba(2, 132, 199, 1)" stroke-width="1.81" stroke-dasharray="4, 4"></path><circle r="86.16859358140289" cx="105.37" cy="669.87" stroke="rgba(2, 132, 199, 1)" stroke-width="1" stroke-dasharray="2, 2"></circle><rect width="97.2" height="97.2" clip-path="url(&quot;#SvgjsClipPath5026&quot;)" x="725.29" y="602.5" fill="url(#SvgjsPattern5027)" transform="rotate(151.64, 773.89, 651.1)"></rect></g><defs><mask id="SvgjsMask5023"><rect width="800" height="800" fill="#ffffff"></rect></mask><pattern x="0" y="0" width="6" height="6" patternUnits="userSpaceOnUse" id="SvgjsPattern5025"><path d="M3 1L3 5M1 3L5 3" stroke="rgba(255, 94, 94, 1)" fill="none" stroke-width="1.62"></path></pattern><clipPath id="SvgjsClipPath5024"><circle r="30" cx="755.77" cy="340.31"></circle></clipPath><pattern x="0" y="0" width="97.2" height="9.72" patternUnits="userSpaceOnUse" id="SvgjsPattern5027"><rect width="97.2" height="4.86" x="0" y="0" fill="rgba(2, 132, 199, 1)"></rect><rect width="97.2" height="4.86" x="0" y="4.86" fill="rgba(0, 0, 0, 0)"></rect></pattern><clipPath id="SvgjsClipPath5026"><circle r="24.3" cx="773.89" cy="651.1"></circle></clipPath></defs></svg>