<svg xmlns="http://www.w3.org/2000/svg" version="1.1" xmlns:xlink="http://www.w3.org/1999/xlink" xmlns:svgjs="http://svgjs.com/svgjs" width="800" height="800" preserveAspectRatio="none" viewBox="0 0 800 800"><g mask="url(&quot;#SvgjsMask5919&quot;)" fill="none"><path d="M115.56 21.45a5.6 5.6 0 1 0 9.83 5.36 5.6 5.6 0 1 0-9.83-5.36zM129.61 29.1a5.6 5.6 0 1 0 9.83 5.36 5.6 5.6 0 1 0-9.83-5.36zM143.66 36.76a5.6 5.6 0 1 0 9.83 5.35 5.6 5.6 0 1 0-9.83-5.35zM157.71 44.41a5.6 5.6 0 1 0 9.84 5.35 5.6 5.6 0 1 0-9.84-5.35zM79.8 20.2a5.6 5.6 0 1 0 9.84 5.36 5.6 5.6 0 1 0-9.84-5.36zM93.85 27.85a5.6 5.6 0 1 0 9.84 5.36 5.6 5.6 0 1 0-9.84-5.36zM107.9 35.5a5.6 5.6 0 1 0 9.84 5.36 5.6 5.6 0 1 0-9.84-5.36zM121.96 43.16a5.6 5.6 0 1 0 9.83 5.35 5.6 5.6 0 1 0-9.83-5.35z" stroke="rgba(2, 132, 199, 1)" stroke-width="1.97" stroke-dasharray="4, 4"></path><circle r="70.9855852676486" cx="625.99" cy="47.33" stroke="rgba(2, 132, 199, 1)" stroke-width="1"></circle><path d="M161.65 420.63L153.42 410.82 161.18 400.64 152.95 390.83 160.72 380.64 152.48 370.83 160.25 360.65" stroke="rgba(2, 132, 199, 1)" stroke-width="2.01" stroke-dasharray="2, 2"></path><path d="M165.96 974.47 L188.84 813.9100000000001L68.94511970597505 785.7351197059751z" fill="rgba(255, 94, 94, 1)"></path><path d="M215.4 90.75 L212.96 191.82L159.00324650319678 86.10824650319677z" stroke="rgba(2, 132, 199, 1)" stroke-width="2.5" stroke-dasharray="4, 4"></path></g><defs><mask id="SvgjsMask5919"><rect width="800" height="800" fill="#ffffff"></rect></mask></defs></svg>