<svg xmlns="http://www.w3.org/2000/svg" version="1.1" xmlns:xlink="http://www.w3.org/1999/xlink" xmlns:svgjs="http://svgjs.com/svgjs" width="800" height="800" preserveAspectRatio="none" viewBox="0 0 800 800"><g mask="url(&quot;#SvgjsMask5255&quot;)" fill="none"><rect width="135.35999999999999" height="135.35999999999999" clip-path="url(&quot;#SvgjsClipPath5256&quot;)" x="86.29" y="30.89" fill="url(#SvgjsPattern5257)" transform="rotate(85.06, 153.97, 98.57)"></rect><rect width="336" height="336" clip-path="url(&quot;#SvgjsClipPath5258&quot;)" x="447.42" y="514.41" fill="url(#SvgjsPattern5259)" transform="rotate(104.67, 615.42, 682.41)"></rect><path d="M254.29000000000002 475.34999999999997 L214.39 575.19L276.7170900831657 567.6470900831657z" stroke="rgba(2, 132, 199, 1)" stroke-width="1" stroke-dasharray="4, 4"></path><path d="M457.17 710.48a5.6 5.6 0 1 0-7.24-8.55 5.6 5.6 0 1 0 7.24 8.55zM446.83 698.26a5.6 5.6 0 1 0-7.23-8.55 5.6 5.6 0 1 0 7.23 8.55zM436.5 686.04a5.6 5.6 0 1 0-7.23-8.55 5.6 5.6 0 1 0 7.23 8.55zM426.17 673.83a5.6 5.6 0 1 0-7.23-8.56 5.6 5.6 0 1 0 7.23 8.56zM490.05 724.58a5.6 5.6 0 1 0-7.24-8.55 5.6 5.6 0 1 0 7.24 8.55zM479.71 712.36a5.6 5.6 0 1 0-7.23-8.55 5.6 5.6 0 1 0 7.23 8.55zM469.38 700.15a5.6 5.6 0 1 0-7.23-8.56 5.6 5.6 0 1 0 7.23 8.56zM459.05 687.93a5.6 5.6 0 1 0-7.23-8.55 5.6 5.6 0 1 0 7.23 8.55zM522.93 738.68a5.6 5.6 0 1 0-7.24-8.55 5.6 5.6 0 1 0 7.24 8.55zM512.59 726.47a5.6 5.6 0 1 0-7.23-8.56 5.6 5.6 0 1 0 7.23 8.56zM502.26 714.25a5.6 5.6 0 1 0-7.23-8.55 5.6 5.6 0 1 0 7.23 8.55zM491.93 702.03a5.6 5.6 0 1 0-7.23-8.55 5.6 5.6 0 1 0 7.23 8.55z" stroke="rgba(2, 132, 199, 1)" stroke-width="1.45" stroke-dasharray="4, 4"></path><rect width="250.12" height="250.12" clip-path="url(&quot;#SvgjsClipPath5260&quot;)" x="638.06" y="234.95" fill="url(#SvgjsPattern5261)" transform="rotate(102.83, 763.12, 360.01)"></rect></g><defs><mask id="SvgjsMask5255"><rect width="800" height="800" fill="#ffffff"></rect></mask><pattern x="0" y="0" width="7.52" height="7.52" patternUnits="userSpaceOnUse" id="SvgjsPattern5257"><path d="M0 7.52L3.76 0L7.52 7.52" stroke="rgba(255, 94, 94, 1)" fill="none"></path></pattern><clipPath id="SvgjsClipPath5256"><circle r="33.839999999999996" cx="153.97" cy="98.57"></circle></clipPath><pattern x="0" y="0" width="6" height="6" patternUnits="userSpaceOnUse" id="SvgjsPattern5259"><path d="M0 6L3 0L6 6" stroke="rgba(255, 94, 94, 1)" fill="none"></path></pattern><clipPath id="SvgjsClipPath5258"><circle r="84" cx="615.42" cy="682.41"></circle></clipPath><pattern x="0" y="0" width="9.62" height="9.62" patternUnits="userSpaceOnUse" id="SvgjsPattern5261"><path d="M4.81 1L4.81 8.62M1 4.81L8.62 4.81" stroke="rgba(2, 132, 199, 1)" fill="none" stroke-width="1"></path></pattern><clipPath id="SvgjsClipPath5260"><circle r="62.53" cx="763.12" cy="360.01"></circle></clipPath></defs></svg>