<svg xmlns="http://www.w3.org/2000/svg" version="1.1" xmlns:xlink="http://www.w3.org/1999/xlink" xmlns:svgjs="http://svgjs.com/svgjs" width="1440" height="800" preserveAspectRatio="none" viewBox="0 0 1440 800"><g mask="url(&quot;#SvgjsMask3972&quot;)" fill="none"><rect width="412.56" height="412.56" clip-path="url(&quot;#SvgjsClipPath3973&quot;)" x="1009.18" y="-59.41" fill="url(#SvgjsPattern3974)" transform="rotate(69.8, 1215.46, 146.87)"></rect><rect width="267.28" height="267.28" clip-path="url(&quot;#SvgjsClipPath3975&quot;)" x="689.38" y="103.57" fill="url(#SvgjsPattern3976)" transform="rotate(57.24, 823.02, 237.21)"></rect><rect width="60" height="60" clip-path="url(&quot;#SvgjsClipPath3977&quot;)" x="977.46" y="556.87" fill="url(#SvgjsPattern3978)" transform="rotate(291.86, 1007.46, 586.87)"></rect><rect width="444" height="444" clip-path="url(&quot;#SvgjsClipPath3979&quot;)" x="1146.96" y="172.8" fill="url(#SvgjsPattern3980)" transform="rotate(24.22, 1368.96, 394.8)"></rect><rect width="100" height="100" clip-path="url(&quot;#SvgjsClipPath3981&quot;)" x="1032.68" y="-35.67" fill="url(#SvgjsPattern3982)" transform="rotate(284.51, 1082.68, 14.33)"></rect><path d="M475.81999999999994 427.13 L497.27 525.76L527.1845058197059 435.80549418029403z" stroke="rgba(2, 132, 199, 1)" stroke-width="1.52" stroke-dasharray="3, 2"></path><circle r="77.79360773552185" cx="1292.51" cy="471.98" fill="rgba(255, 94, 94, 1)"></circle><rect width="109.8" height="109.8" clip-path="url(&quot;#SvgjsClipPath3983&quot;)" x="295.06" y="157.22" fill="url(#SvgjsPattern3984)" transform="rotate(337.5, 349.96, 212.12)"></rect><rect width="264" height="264" clip-path="url(&quot;#SvgjsClipPath3985&quot;)" x="1211.15" y="9.04" fill="url(#SvgjsPattern3986)" transform="rotate(75.31, 1343.15, 141.04)"></rect></g><defs><mask id="SvgjsMask3972"><rect width="1440" height="800" fill="#ffffff"></rect></mask><pattern x="0" y="0" width="7.64" height="7.64" patternUnits="userSpaceOnUse" id="SvgjsPattern3974"><path d="M0 7.64L3.82 0L7.64 7.64" stroke="rgba(2, 132, 199, 1)" fill="none"></path></pattern><clipPath id="SvgjsClipPath3973"><circle r="103.14" cx="1215.46" cy="146.87"></circle></clipPath><pattern x="0" y="0" width="10.28" height="10.28" patternUnits="userSpaceOnUse" id="SvgjsPattern3976"><path d="M5.14 1L5.14 9.28M1 5.14L9.28 5.14" stroke="rgba(2, 132, 199, 1)" fill="none" stroke-width="1.41"></path></pattern><clipPath id="SvgjsClipPath3975"><circle r="66.82" cx="823.02" cy="237.21"></circle></clipPath><pattern x="0" y="0" width="60" height="6" patternUnits="userSpaceOnUse" id="SvgjsPattern3978"><rect width="60" height="3" x="0" y="0" fill="rgba(2, 132, 199, 1)"></rect><rect width="60" height="3" x="0" y="3" fill="rgba(0, 0, 0, 0)"></rect></pattern><clipPath id="SvgjsClipPath3977"><circle r="15" cx="1007.46" cy="586.87"></circle></clipPath><pattern x="0" y="0" width="6" height="6" patternUnits="userSpaceOnUse" id="SvgjsPattern3980"><path d="M3 1L3 5M1 3L5 3" stroke="rgba(2, 132, 199, 1)" fill="none" stroke-width="1"></path></pattern><clipPath id="SvgjsClipPath3979"><circle r="111" cx="1368.96" cy="394.8"></circle></clipPath><pattern x="0" y="0" width="100" height="10" patternUnits="userSpaceOnUse" id="SvgjsPattern3982"><rect width="100" height="5" x="0" y="0" fill="rgba(2, 132, 199, 1)"></rect><rect width="100" height="5" x="0" y="5" fill="rgba(0, 0, 0, 0)"></rect></pattern><clipPath id="SvgjsClipPath3981"><circle r="25" cx="1082.68" cy="14.33"></circle></clipPath><pattern x="0" y="0" width="10.98" height="10.98" patternUnits="userSpaceOnUse" id="SvgjsPattern3984"><path d="M5.49 1L5.49 9.98M1 5.49L9.98 5.49" stroke="rgba(2, 132, 199, 1)" fill="none" stroke-width="2.72"></path></pattern><clipPath id="SvgjsClipPath3983"><circle r="27.45" cx="349.96" cy="212.12"></circle></clipPath><pattern x="0" y="0" width="6" height="6" patternUnits="userSpaceOnUse" id="SvgjsPattern3986"><path d="M3 1L3 5M1 3L5 3" stroke="rgba(255, 94, 94, 1)" fill="none" stroke-width="1"></path></pattern><clipPath id="SvgjsClipPath3985"><circle r="66" cx="1343.15" cy="141.04"></circle></clipPath></defs></svg>