<svg xmlns="http://www.w3.org/2000/svg" version="1.1" xmlns:xlink="http://www.w3.org/1999/xlink" xmlns:svgjs="http://svgjs.com/svgjs" width="800" height="800" preserveAspectRatio="none" viewBox="0 0 800 800"><g mask="url(&quot;#SvgjsMask4896&quot;)" fill="none"><rect width="94.2" height="94.2" clip-path="url(&quot;#SvgjsClipPath4897&quot;)" x="382.43" y="63.02" fill="url(#SvgjsPattern4898)" transform="rotate(140.16, 429.53, 110.12)"></rect><rect width="152.16" height="152.16" clip-path="url(&quot;#SvgjsClipPath4899&quot;)" x="286.87" y="574.12" fill="url(#SvgjsPattern4900)" transform="rotate(194.97, 362.95, 650.2)"></rect><circle r="104.76346330431899" cx="705.18" cy="216.95" stroke="rgba(2, 132, 199, 1)" stroke-width="1"></circle><path d="M678.72 392.75L690.07 398.69 686.77 411.06 698.12 417 694.82 429.37 706.17 435.31 702.87 447.68" stroke="rgba(255, 94, 94, 1)" stroke-width="1"></path><rect width="344.96" height="344.96" clip-path="url(&quot;#SvgjsClipPath4901&quot;)" x="414.07" y="534.89" fill="url(#SvgjsPattern4902)" transform="rotate(227.53, 586.55, 707.37)"></rect></g><defs><mask id="SvgjsMask4896"><rect width="800" height="800" fill="#ffffff"></rect></mask><pattern x="0" y="0" width="94.2" height="9.42" patternUnits="userSpaceOnUse" id="SvgjsPattern4898"><rect width="94.2" height="4.71" x="0" y="0" fill="rgba(255, 94, 94, 1)"></rect><rect width="94.2" height="4.71" x="0" y="4.71" fill="rgba(0, 0, 0, 0)"></rect></pattern><clipPath id="SvgjsClipPath4897"><circle r="23.55" cx="429.53" cy="110.12"></circle></clipPath><pattern x="0" y="0" width="152.16" height="12.68" patternUnits="userSpaceOnUse" id="SvgjsPattern4900"><rect width="152.16" height="6.34" x="0" y="0" fill="rgba(2, 132, 199, 1)"></rect><rect width="152.16" height="6.34" x="0" y="6.34" fill="rgba(0, 0, 0, 0)"></rect></pattern><clipPath id="SvgjsClipPath4899"><circle r="38.04" cx="362.95" cy="650.2"></circle></clipPath><pattern x="0" y="0" width="7.84" height="7.84" patternUnits="userSpaceOnUse" id="SvgjsPattern4902"><path d="M0 7.84L3.92 0L7.84 7.84" stroke="rgba(255, 94, 94, 1)" fill="none"></path></pattern><clipPath id="SvgjsClipPath4901"><circle r="86.24" cx="586.55" cy="707.37"></circle></clipPath></defs></svg>