<svg xmlns="http://www.w3.org/2000/svg" version="1.1" xmlns:xlink="http://www.w3.org/1999/xlink" xmlns:svgjs="http://svgjs.com/svgjs" width="800" height="800" preserveAspectRatio="none" viewBox="0 0 800 800"><g mask="url(&quot;#SvgjsMask6962&quot;)" fill="none"><circle r="97.72388535553961" cx="127.03" cy="768.93" fill="rgba(255, 94, 94, 1)"></circle><path d="M352.63 231.12a5.6 5.6 0 1 0 11.02 2 5.6 5.6 0 1 0-11.02-2zM368.38 233.98a5.6 5.6 0 1 0 11.02 2 5.6 5.6 0 1 0-11.02-2zM384.12 236.84a5.6 5.6 0 1 0 11.02 2 5.6 5.6 0 1 0-11.02-2zM399.86 239.7a5.6 5.6 0 1 0 11.02 2 5.6 5.6 0 1 0-11.02-2z" stroke="rgba(2, 132, 199, 1)" stroke-width="1.7"></path><rect width="228.76" height="228.76" clip-path="url(&quot;#SvgjsClipPath6963&quot;)" x="555.01" y="111.04" fill="url(#SvgjsPattern6964)" transform="rotate(168.18, 669.39, 225.42)"></rect><rect width="113" height="113" clip-path="url(&quot;#SvgjsClipPath6965&quot;)" x="178.05" y="428.14" fill="url(#SvgjsPattern6966)" transform="rotate(156.92, 234.55, 484.64)"></rect><rect width="233.52" height="233.52" clip-path="url(&quot;#SvgjsClipPath6967&quot;)" x="289.13" y="-8.33" fill="url(#SvgjsPattern6968)" transform="rotate(1.53, 405.89, 108.43)"></rect></g><defs><mask id="SvgjsMask6962"><rect width="800" height="800" fill="#ffffff"></rect></mask><pattern x="0" y="0" width="6.02" height="6.02" patternUnits="userSpaceOnUse" id="SvgjsPattern6964"><path d="M0 6.02L3.01 0L6.02 6.02" stroke="rgba(2, 132, 199, 1)" fill="none"></path></pattern><clipPath id="SvgjsClipPath6963"><circle r="57.19" cx="669.39" cy="225.42"></circle></clipPath><pattern x="0" y="0" width="11.3" height="11.3" patternUnits="userSpaceOnUse" id="SvgjsPattern6966"><path d="M0 11.3L5.65 0L11.3 11.3" stroke="rgba(255, 94, 94, 1)" fill="none"></path></pattern><clipPath id="SvgjsClipPath6965"><circle r="28.25" cx="234.55" cy="484.64"></circle></clipPath><pattern x="0" y="0" width="233.52" height="8.34" patternUnits="userSpaceOnUse" id="SvgjsPattern6968"><rect width="233.52" height="4.17" x="0" y="0" fill="rgba(255, 94, 94, 1)"></rect><rect width="233.52" height="4.17" x="0" y="4.17" fill="rgba(0, 0, 0, 0)"></rect></pattern><clipPath id="SvgjsClipPath6967"><circle r="58.38" cx="405.89" cy="108.43"></circle></clipPath></defs></svg>