<svg xmlns="http://www.w3.org/2000/svg" version="1.1" xmlns:xlink="http://www.w3.org/1999/xlink" xmlns:svgjs="http://svgjs.com/svgjs" width="800" height="800" preserveAspectRatio="none" viewBox="0 0 800 800"><g mask="url(&quot;#SvgjsMask5135&quot;)" fill="none"><path d="M633.94 563.61 L645.53 597.3100000000001L654.9593021789069 565.2356978210931z" fill="rgba(2, 132, 199, 1)"></path><rect width="412.88" height="412.88" clip-path="url(&quot;#SvgjsClipPath5136&quot;)" x="229.1" y="-113.27" fill="url(#SvgjsPattern5137)" transform="rotate(140.19, 435.54, 93.17)"></rect><rect width="504" height="504" clip-path="url(&quot;#SvgjsClipPath5138&quot;)" x="-247.79" y="-32.96" fill="url(#SvgjsPattern5139)" transform="rotate(196.69, 4.21, 219.04)"></rect><circle r="66.66666666666667" cx="166.95" cy="550.51" fill="rgba(255, 94, 94, 1)"></circle><rect width="468" height="468" clip-path="url(&quot;#SvgjsClipPath5140&quot;)" x="263.44" y="23.3" fill="url(#SvgjsPattern5141)" transform="rotate(142.09, 497.44, 257.3)"></rect></g><defs><mask id="SvgjsMask5135"><rect width="800" height="800" fill="#ffffff"></rect></mask><pattern x="0" y="0" width="7.94" height="7.94" patternUnits="userSpaceOnUse" id="SvgjsPattern5137"><path d="M0 7.94L3.97 0L7.94 7.94" stroke="rgba(2, 132, 199, 1)" fill="none"></path></pattern><clipPath id="SvgjsClipPath5136"><circle r="103.22" cx="435.54" cy="93.17"></circle></clipPath><pattern x="0" y="0" width="504" height="8.4" patternUnits="userSpaceOnUse" id="SvgjsPattern5139"><rect width="504" height="4.2" x="0" y="0" fill="rgba(2, 132, 199, 1)"></rect><rect width="504" height="4.2" x="0" y="4.2" fill="rgba(0, 0, 0, 0)"></rect></pattern><clipPath id="SvgjsClipPath5138"><circle r="126" cx="4.21" cy="219.04"></circle></clipPath><pattern x="0" y="0" width="6" height="6" patternUnits="userSpaceOnUse" id="SvgjsPattern5141"><path d="M0 6L3 0L6 6" stroke="rgba(255, 94, 94, 1)" fill="none"></path></pattern><clipPath id="SvgjsClipPath5140"><circle r="117" cx="497.44" cy="257.3"></circle></clipPath></defs></svg>