<svg xmlns="http://www.w3.org/2000/svg" version="1.1" xmlns:xlink="http://www.w3.org/1999/xlink" xmlns:svgjs="http://svgjs.com/svgjs" width="800" height="800" preserveAspectRatio="none" viewBox="0 0 800 800"><g mask="url(&quot;#SvgjsMask4942&quot;)" fill="none"><rect width="229.67999999999998" height="229.67999999999998" clip-path="url(&quot;#SvgjsClipPath4943&quot;)" x="510.42" y="255.6" fill="url(#SvgjsPattern4944)" transform="rotate(304.58, 625.26, 370.44)"></rect><circle r="113.33018108745237" cx="770.55" cy="674.28" stroke="rgba(255, 94, 94, 1)" stroke-width="2.36" stroke-dasharray="3, 3"></circle><path d="M129.46 572.22L117.93 566.64 120.84 554.17 109.31 548.6 112.22 536.13 100.69 530.55 103.59 518.08M136.68 568.77L125.15 563.19 128.06 550.72 116.53 545.15 119.43 532.68 107.9 527.1 110.81 514.63M143.9 565.32L132.37 559.74 135.28 547.27 123.75 541.7 126.65 529.23 115.12 523.65 118.03 511.18" stroke="rgba(2, 132, 199, 1)" stroke-width="1.76" stroke-dasharray="2, 2"></path><rect width="70.19999999999999" height="70.19999999999999" clip-path="url(&quot;#SvgjsClipPath4945&quot;)" x="-8.36" y="90.74" fill="url(#SvgjsPattern4946)" transform="rotate(281.64, 26.74, 125.84)"></rect><rect width="396" height="396" clip-path="url(&quot;#SvgjsClipPath4947&quot;)" x="-8.52" y="6.5" fill="url(#SvgjsPattern4948)" transform="rotate(8.49, 189.48, 204.5)"></rect></g><defs><mask id="SvgjsMask4942"><rect width="800" height="800" fill="#ffffff"></rect></mask><pattern x="0" y="0" width="10.44" height="10.44" patternUnits="userSpaceOnUse" id="SvgjsPattern4944"><path d="M0 10.44L5.22 0L10.44 10.44" stroke="rgba(255, 94, 94, 1)" fill="none"></path></pattern><clipPath id="SvgjsClipPath4943"><circle r="57.419999999999995" cx="625.26" cy="370.44"></circle></clipPath><pattern x="0" y="0" width="7.02" height="7.02" patternUnits="userSpaceOnUse" id="SvgjsPattern4946"><path d="M0 7.02L3.51 0L7.02 7.02" stroke="rgba(2, 132, 199, 1)" fill="none"></path></pattern><clipPath id="SvgjsClipPath4945"><circle r="17.549999999999997" cx="26.74" cy="125.84"></circle></clipPath><pattern x="0" y="0" width="396" height="6" patternUnits="userSpaceOnUse" id="SvgjsPattern4948"><rect width="396" height="3" x="0" y="0" fill="rgba(2, 132, 199, 1)"></rect><rect width="396" height="3" x="0" y="3" fill="rgba(0, 0, 0, 0)"></rect></pattern><clipPath id="SvgjsClipPath4947"><circle r="99" cx="189.48" cy="204.5"></circle></clipPath></defs></svg>